<!DOCTYPE svg PUBLIC "-//W3C//DTD SVG 1.1//EN" "http://www.w3.org/Graphics/SVG/1.1/DTD/svg11.dtd">
<!-- Uploaded to: SVG Repo, www.svgrepo.com, Transformed by: SVG Repo Mixer Tools -->
<svg fill="#007eb4" width="800px" height="800px" viewBox="0 0 32 32" version="1.1" xmlns="http://www.w3.org/2000/svg" stroke="#007eb4">
<g id="SVGRepo_bgCarrier" stroke-width="0"/>
<g id="SVGRepo_tracerCarrier" stroke-linecap="round" stroke-linejoin="round"/>
<g id="SVGRepo_iconCarrier"> <title>academia</title> <path d="M9.527 18.95q2.116-5.301 4.098-10.653l4.261 10.653zM28.538 27.472l-10.326-25.894h-7.374l1.311 3.278-8.85 22.616c-0.327 1.147-1.311 1.312-2.294 1.476v1.475h8.523v-1.475c-2.294-0.164-3.606-0.492-2.623-2.95 0.531-1.125 1.086-2.536 1.56-3.983l0.079-0.278h10.488l1.475 3.769c0.161 0.479 0.277 1.036 0.326 1.612l0.002 0.026c0 1.311-1.147 1.803-3.278 1.803v1.475h13.441v-1.475c-1.147-0.163-2.131-0.491-2.458-1.475z"/> </g>
</svg>