<svg xmlns="http://www.w3.org/2000/svg" version="1.1" xmlns:xlink="http://www.w3.org/1999/xlink" xmlns:svgjs="http://svgjs.dev/svgjs" width="1000" height="623" viewBox="0 0 1000 623"><g transform="matrix(1,0,0,1,-0.6060606060606233,0.2522267206477409)"><svg viewBox="0 0 396 247" data-background-color="#ffffff" preserveAspectRatio="xMidYMid meet" height="623" width="1000" xmlns="http://www.w3.org/2000/svg" xmlns:xlink="http://www.w3.org/1999/xlink"><defs></defs><g id="tight-bounds" transform="matrix(1,0,0,1,0.2400000000000091,-0.09999999999999432)"><svg viewBox="0 0 395.52 247.2" height="247.2" width="395.52"><g><svg></svg></g><g><svg viewBox="0 0 395.52 247.2" height="247.2" width="395.52"><g><path d="M200.99 225.662h-34.624l-56.333-80.24h50.215l19.554 28.046h1.034l0-28.046 20.154 0zM51.902 62.621h-1.034l0 39.157-20.154 0v-30.113c0-7.235-0.345-13.212-1.033-17.932-0.689-4.754-1.981-8.509-3.876-11.266-1.895-2.756-4.599-4.703-8.113-5.839-3.548-1.102-8.251-1.826-14.108-2.171v-10.335h72.089l54.144 77.656-50.425 0zM50.868 173.727c0 8.613 0.31 15.417 0.93 20.412 0.586 4.995 1.878 8.871 3.876 11.627 1.964 2.756 4.72 4.565 8.269 5.426 3.514 0.861 8.113 1.378 13.797 1.551v10.335h-76.74v-10.335c6.373-0.172 11.507-0.741 15.4-1.706 3.859-0.93 6.873-2.687 9.043-5.271 2.136-2.584 3.548-6.253 4.238-11.007 0.689-4.72 1.034-11.128 1.033-19.224l0-30.113 20.154 0zM180.836 73.473c0-8.441-0.293-15.21-0.879-20.309-0.62-5.064-1.912-8.975-3.875-11.73-1.998-2.756-4.772-4.565-8.32-5.426-3.514-0.861-8.113-1.378-13.798-1.551v-10.335h76.74v10.335c-6.373 0.172-11.49 0.723-15.348 1.654-3.893 0.965-6.907 2.739-9.043 5.323-2.17 2.584-3.6 6.287-4.29 11.11-0.689 4.823-1.034 11.197-1.033 19.121l0 30.113-20.154 0zM252.667 223.078l-3.876-65.888h10.077c2.412 16.364 8.957 29.232 19.637 38.603 10.68 9.405 23.858 14.108 39.533 14.108 6.373 0 12.23-0.775 17.57-2.326 5.34-1.55 9.905-3.755 13.695-6.615 3.79-2.825 6.718-6.184 8.785-10.077 2.067-3.859 3.101-8.199 3.1-13.022 0-4.134-0.637-7.717-1.912-10.749-1.309-2.997-3.772-5.926-7.389-8.785-3.617-2.825-8.561-5.702-14.832-8.63-2.875-1.335-6.133-2.76-9.774-4.275l62.841 0c0.18 0.39 0.354 0.781 0.522 1.174 2.584 6.029 3.876 12.661 3.876 19.896 0 8.785-1.895 16.795-5.684 24.03-3.79 7.235-9.095 13.436-15.917 18.603-6.787 5.168-14.866 9.216-24.236 12.144-9.405 2.928-19.792 4.393-31.162 4.393-10.335 0-19.637-1.43-27.905-4.289-8.268-2.825-16.795-7.424-25.58-13.798l-5.168 15.503zM253.442 76.316c0-8.096 1.55-15.503 4.651-22.222 3.101-6.718 7.441-12.489 13.022-17.311 5.616-4.823 12.334-8.578 20.154-11.266 7.855-2.653 16.519-3.979 25.994-3.979 8.785 0 17.053 1.378 24.805 4.134 7.752 2.756 15.417 6.89 22.996 12.403l4.651-12.92h6.201l2.843 55.812h-10.077c-4.134-14.125-10.594-24.926-19.379-32.402-8.785-7.51-18.948-11.266-30.49-11.266-10.68 0-19.327 2.618-25.942 7.855-6.649 5.271-9.974 12.041-9.973 20.309 0 3.617 0.603 6.839 1.808 9.664 1.206 2.859 3.445 5.581 6.718 8.165 3.273 2.584 7.752 5.202 13.436 7.855 5.684 2.687 13.005 5.667 21.963 8.94 1.46 0.563 2.894 1.127 4.303 1.691l-71.232 0c-4.301-7.658-6.452-16.145-6.452-25.462z" fill="#010c80" data-fill-palette-color="tertiary"></path></g><g transform="matrix(1,0,0,1,0,106.70774862721171)"><svg viewBox="0 0 395.52 33.78450274557657" height="33.78450274557657" width="395.52"><g><svg viewBox="0 0 395.52 33.78450274557657" height="33.78450274557657" width="395.52"><g><svg viewBox="0 0 395.52 33.78450274557657" height="33.78450274557657" width="395.52"><g><svg viewBox="0 0 395.52 33.78450274557657" height="33.78450274557657" width="395.52"><g><svg viewBox="0 0 395.52 33.78450274557657" height="33.78450274557657" width="395.52"><g><svg viewBox="0 0 395.52 33.78450274557657" height="33.78450274557657" width="395.52"><g transform="matrix(1,0,0,1,0,0)"><svg width="395.52" viewBox="1.5 -41.5 491.6600036621094 42" height="33.78450274557657" data-palette-color="#010c80"><path d="M40.2 0.5L33.5 0.5 11.35-31.05 11.15-31.05 11.15-9.55Q11.15-7.05 11.33-5.6 11.5-4.15 12.08-3.35 12.65-2.55 13.68-2.3 14.7-2.05 16.35-2L16.35-2 16.35 0 1.5 0 1.5-2Q3.35-2.05 4.48-2.33 5.6-2.6 6.23-3.35 6.85-4.1 7.05-5.48 7.25-6.85 7.25-9.2L7.25-9.2 7.25-29.3Q7.25-31.4 7.05-32.77 6.85-34.15 6.3-34.95 5.75-35.75 4.73-36.08 3.7-36.4 2-36.5L2-36.5 2-38.5 15.95-38.5 36.1-9.6 36.3-9.6 36.3-28.95Q36.3-31.4 36.13-32.88 35.95-34.35 35.38-35.15 34.8-35.95 33.77-36.2 32.75-36.45 31.1-36.5L31.1-36.5 31.1-38.5 45.95-38.5 45.95-36.5Q44.1-36.45 42.98-36.18 41.85-35.9 41.23-35.15 40.6-34.4 40.4-33 40.2-31.6 40.2-29.3L40.2-29.3 40.2 0.5ZM59.15-27L59.15-8.2Q59.15-6.2 59.3-5 59.45-3.8 59.9-3.15 60.35-2.5 61.2-2.27 62.05-2.05 63.5-2L63.5-2 63.5 0 47.75 0 47.75-2Q49.15-2.05 50.02-2.33 50.9-2.6 51.37-3.23 51.85-3.85 52.02-4.98 52.2-6.1 52.2-7.85L52.2-7.85 52.2-14Q52.2-16.9 52.1-18.78 52-20.65 51.85-21.35L51.85-21.35Q51.6-22.6 50.72-23 49.85-23.4 47.55-23.4L47.55-23.4 47.55-25.1 59.15-27ZM51.8-37.6L51.8-37.6Q51.8-39.25 52.92-40.38 54.05-41.5 55.65-41.5L55.65-41.5Q57.3-41.5 58.42-40.38 59.55-39.25 59.55-37.6L59.55-37.6Q59.55-36 58.42-34.88 57.3-33.75 55.65-33.75L55.65-33.75Q54.05-33.75 52.92-34.88 51.8-36 51.8-37.6ZM82.25 0L82.25-2Q83.84-2 84.5-2.13 85.14-2.25 85.14-2.65L85.14-2.65Q85.14-2.95 84.47-4.13 83.8-5.3 82.75-6.85L82.75-6.85 78.94-12.55 76.44-10.15 76.44-8.2Q76.44-6.25 76.59-5.05 76.75-3.85 77.12-3.18 77.5-2.5 78.17-2.25 78.84-2 79.89-2L79.89-2 79.89 0 65.14 0 65.14-2Q66.55-2.05 67.39-2.3 68.25-2.55 68.75-3.18 69.25-3.8 69.42-4.93 69.59-6.05 69.59-7.85L69.59-7.85 69.59-29.05Q69.59-32.1 69.5-33.85 69.39-35.6 68.97-36.48 68.55-37.35 67.67-37.55 66.8-37.75 65.3-37.75L65.3-37.75 65.3-39.6 76.44-41.5 76.44-13.7 81.25-18.25Q83.84-20.7 84.94-21.93 86.05-23.15 86.05-23.7L86.05-23.7Q86.05-24.15 85.12-24.33 84.19-24.5 81.69-24.5L81.69-24.5 81.69-26.5 95.34-26.5 95.34-24.5Q93.44-24.5 92-23.85 90.55-23.2 88.84-21.6L88.84-21.6 84-17.05 92.64-4.8Q93.8-3.2 94.89-2.6 96-2 97.8-2L97.8-2 97.8 0 82.25 0ZM112.64-27L112.64-27Q115.64-27 118.32-25.98 120.99-24.95 123.02-23.15 125.04-21.35 126.22-18.88 127.39-16.4 127.39-13.45L127.39-13.45Q127.39-10.4 126.22-7.85 125.04-5.3 123.02-3.45 120.99-1.6 118.32-0.55 115.64 0.5 112.64 0.5L112.64 0.5Q109.69 0.5 107.04-0.53 104.39-1.55 102.39-3.4 100.39-5.25 99.24-7.83 98.09-10.4 98.09-13.45L98.09-13.45Q98.09-16.4 99.24-18.9 100.39-21.4 102.39-23.2 104.39-25 107.04-26 109.69-27 112.64-27ZM112.64-24.1L112.64-24.1Q111.14-24.1 109.89-23.33 108.64-22.55 107.77-21.15 106.89-19.75 106.42-17.78 105.94-15.8 105.94-13.4L105.94-13.4Q105.94-10.9 106.42-8.9 106.89-6.9 107.77-5.5 108.64-4.1 109.87-3.33 111.09-2.55 112.64-2.55L112.64-2.55Q114.19-2.55 115.47-3.33 116.74-4.1 117.64-5.53 118.54-6.95 119.04-8.95 119.54-10.95 119.54-13.4L119.54-13.4Q119.54-15.8 119.04-17.75 118.54-19.7 117.64-21.13 116.74-22.55 115.47-23.33 114.19-24.1 112.64-24.1ZM141.59-41.5L141.59-8.2Q141.59-6.2 141.74-5 141.89-3.8 142.34-3.15 142.79-2.5 143.64-2.27 144.49-2.05 145.94-2L145.94-2 145.94 0 130.19 0 130.19-2Q131.59-2.05 132.47-2.33 133.34-2.6 133.81-3.23 134.29-3.85 134.47-4.98 134.64-6.1 134.64-7.85L134.64-7.85 134.64-28.5Q134.64-31.4 134.54-33.27 134.44-35.15 134.29-35.85L134.29-35.85Q134.04-37.1 133.17-37.5 132.29-37.9 129.99-37.9L129.99-37.9 129.99-39.6 141.59-41.5ZM164.19-9.5L164.19-14.25Q159.99-12.35 157.86-10.73 155.74-9.1 155.74-7.35L155.74-7.35Q155.74-5.9 156.54-5.05 157.34-4.2 158.54-4.2L158.54-4.2Q159.74-4.2 160.79-4.63 161.84-5.05 162.59-5.75 163.34-6.45 163.76-7.43 164.19-8.4 164.19-9.5L164.19-9.5ZM157.14-13.85L164.19-16.9 164.19-19Q164.19-21.9 163.16-23.23 162.14-24.55 159.99-24.55L159.99-24.55Q158.54-24.55 157.79-23.78 157.04-23 156.39-21.2L156.39-21.2Q155.94-19.95 155.11-19.25 154.29-18.55 152.84-18.55L152.84-18.55Q151.44-18.55 150.69-19.4 149.94-20.25 149.94-21.8L149.94-21.8Q149.94-24.2 152.56-25.6 155.19-27 160.49-27L160.49-27Q166.09-27 168.49-24.98 170.89-22.95 170.89-18.2L170.89-18.2 170.89-7.25Q170.89-3 172.59-3L172.59-3Q173.54-3 174.34-3.65L174.34-3.65 175.09-2.2Q174.39-0.95 172.91-0.23 171.44 0.5 169.59 0.5L169.59 0.5Q167.29 0.5 166.09-0.9 164.89-2.3 164.89-4.85L164.89-4.85 164.64-4.85Q163.19-2.25 160.89-0.9 158.59 0.45 155.64 0.45L155.64 0.45Q152.49 0.45 150.59-1.33 148.69-3.1 148.69-5.95L148.69-5.95Q148.69-8.15 150.64-10.08 152.59-12 157.14-13.85L157.14-13.85ZM192.43 0L191.68-12.75 193.63-12.75Q194.33-8 197.43-5.28 200.53-2.55 205.08-2.55L205.08-2.55Q206.93-2.55 208.48-3 210.03-3.45 211.13-4.28 212.23-5.1 212.83-6.23 213.43-7.35 213.43-8.75L213.43-8.75Q213.43-9.95 213.06-10.83 212.68-11.7 211.63-12.53 210.58-13.35 208.76-14.2 206.93-15.05 204.03-16.15L204.03-16.15Q198.18-18.4 195.38-21.38 192.58-24.35 192.58-28.4L192.58-28.4Q192.58-30.75 193.48-32.7 194.38-34.65 196.01-36.05 197.63-37.45 199.91-38.23 202.18-39 204.93-39L204.93-39Q207.48-39 209.73-38.2 211.98-37.4 214.18-35.8L214.18-35.8 215.08-38.3 216.28-38.3 216.83-27.5 214.88-27.5Q213.68-31.6 211.13-33.77 208.58-35.95 205.23-35.95L205.23-35.95Q202.13-35.95 200.21-34.43 198.28-32.9 198.28-30.5L198.28-30.5Q198.28-29.45 198.63-28.63 198.98-27.8 199.93-27.05 200.88-26.3 202.53-25.53 204.18-24.75 206.78-23.8L206.78-23.8Q210.28-22.45 212.76-21.08 215.23-19.7 216.81-18.13 218.38-16.55 219.13-14.8 219.88-13.05 219.88-10.95L219.88-10.95Q219.88-8.4 218.78-6.3 217.68-4.2 215.71-2.7 213.73-1.2 211.01-0.35 208.28 0.5 204.98 0.5L204.98 0.5Q201.98 0.5 199.58-0.33 197.18-1.15 194.63-3L194.63-3 193.63 0 192.43 0ZM226.73-23.75L223.08-23.75 223.08-26Q226.08-26.85 228.11-28.58 230.13-30.3 231.13-32.55L231.13-32.55 233.68-32.55 233.68-26.5 239.43-26.5 239.43-23.75 233.68-23.75 233.68-8.4Q233.68-5.3 234.36-4 235.03-2.7 236.63-2.7L236.63-2.7Q238.58-2.7 239.58-4.5L239.58-4.5 240.63-3.05Q239.23 0.5 234.03 0.5L234.03 0.5Q230.58 0.5 228.66-1.1 226.73-2.7 226.73-5.6L226.73-5.6 226.73-23.75ZM266.53-6.4L267.93-4.65Q263.38 0.5 256.58 0.5L256.58 0.5Q253.48 0.5 250.95-0.48 248.43-1.45 246.63-3.23 244.83-5 243.83-7.45 242.83-9.9 242.83-12.9L242.83-12.9Q242.83-16 243.88-18.57 244.93-21.15 246.85-23.03 248.78-24.9 251.4-25.95 254.03-27 257.18-27L257.18-27Q262.48-27 265.43-24.15 268.38-21.3 268.38-16.15L268.38-16.15Q268.38-15.35 268.13-15.18 267.88-15 266.73-15L266.73-15 250.63-15Q250.43-14.55 250.43-13.35L250.43-13.35Q250.43-8.45 252.55-5.6 254.68-2.75 258.33-2.75L258.33-2.75Q260.43-2.75 262.5-3.7 264.58-4.65 266.53-6.4L266.53-6.4ZM250.98-17.8L258.23-17.8Q260.23-17.8 260.8-18.03 261.38-18.25 261.38-19.1L261.38-19.1Q261.38-21.3 260.13-22.7 258.88-24.1 256.98-24.1L256.98-24.1Q254.83-24.1 253.15-22.33 251.48-20.55 250.98-17.8L250.98-17.8ZM271.03-23.75L271.03-26.5 276.43-26.5 276.43-29.3Q276.43-32 277.35-34.25 278.28-36.5 279.93-38.13 281.57-39.75 283.9-40.63 286.23-41.5 289.07-41.5L289.07-41.5Q290.78-41.5 292.2-41.18 293.63-40.85 294.68-40.3 295.73-39.75 296.3-38.95 296.88-38.15 296.88-37.25L296.88-37.25Q296.88-36.1 296.03-35.35 295.18-34.6 293.88-34.6L293.88-34.6Q292.98-34.6 292.3-35.2 291.63-35.8 290.28-37.4L290.28-37.4Q289.68-38.1 289.03-38.4 288.38-38.7 287.68-38.7L287.68-38.7Q285.68-38.7 284.53-36.27 283.38-33.85 283.38-29.6L283.38-29.6 283.38-26.5 291.82-26.5 291.82-23.75 283.38-23.75 283.38-8.3Q283.38-6.4 283.6-5.2 283.82-4 284.45-3.3 285.07-2.6 286.13-2.33 287.18-2.05 288.82-2L288.82-2 288.82 0 271.93 0 271.93-2Q273.43-2.05 274.32-2.27 275.23-2.5 275.68-3.13 276.13-3.75 276.28-4.88 276.43-6 276.43-7.9L276.43-7.9 276.43-23.75 271.03-23.75ZM309.52-9.5L309.52-14.25Q305.32-12.35 303.2-10.73 301.07-9.1 301.07-7.35L301.07-7.35Q301.07-5.9 301.87-5.05 302.67-4.2 303.87-4.2L303.87-4.2Q305.07-4.2 306.12-4.63 307.17-5.05 307.92-5.75 308.67-6.45 309.1-7.43 309.52-8.4 309.52-9.5L309.52-9.5ZM302.47-13.85L309.52-16.9 309.52-19Q309.52-21.9 308.5-23.23 307.47-24.55 305.32-24.55L305.32-24.55Q303.87-24.55 303.12-23.78 302.37-23 301.72-21.2L301.72-21.2Q301.27-19.95 300.45-19.25 299.62-18.55 298.17-18.55L298.17-18.55Q296.77-18.55 296.02-19.4 295.27-20.25 295.27-21.8L295.27-21.8Q295.27-24.2 297.9-25.6 300.52-27 305.82-27L305.82-27Q311.42-27 313.82-24.98 316.22-22.95 316.22-18.2L316.22-18.2 316.22-7.25Q316.22-3 317.92-3L317.92-3Q318.87-3 319.67-3.65L319.67-3.65 320.42-2.2Q319.72-0.95 318.25-0.23 316.77 0.5 314.92 0.5L314.92 0.5Q312.62 0.5 311.42-0.9 310.22-2.3 310.22-4.85L310.22-4.85 309.97-4.85Q308.52-2.25 306.22-0.9 303.92 0.45 300.97 0.45L300.97 0.45Q297.82 0.45 295.92-1.33 294.02-3.1 294.02-5.95L294.02-5.95Q294.02-8.15 295.97-10.08 297.92-12 302.47-13.85L302.47-13.85ZM333.87-15.05L333.87-8.15Q333.87-6.1 334-4.93 334.12-3.75 334.54-3.13 334.97-2.5 335.84-2.3 336.72-2.1 338.22-2L338.22-2 338.22 0 322.47 0 322.47-2Q323.92-2.1 324.79-2.3 325.67-2.5 326.14-3.1 326.62-3.7 326.77-4.8 326.92-5.9 326.92-7.8L326.92-7.8 326.92-14.05Q326.92-17 326.82-18.82 326.72-20.65 326.57-21.3L326.57-21.3Q326.42-21.95 326.17-22.38 325.92-22.8 325.42-23.03 324.92-23.25 324.17-23.33 323.42-23.4 322.27-23.4L322.27-23.4 322.27-25.1 331.92-27 332.57-22.6 332.77-22.6Q334.42-24.7 336.67-25.85 338.92-27 341.62-27L341.62-27Q344.82-27 346.79-26.13 348.77-25.25 350.32-23.2L350.32-23.2Q351.17-22.05 351.82-20.23 352.47-18.4 352.47-15.2L352.47-15.2 352.47-8.15Q352.47-6.1 352.59-4.93 352.72-3.75 353.14-3.13 353.57-2.5 354.42-2.3 355.27-2.1 356.72-2L356.72-2 356.72 0 341.07 0 341.07-2Q342.57-2.05 343.44-2.27 344.32-2.5 344.77-3.1 345.22-3.7 345.37-4.83 345.52-5.95 345.52-7.8L345.52-7.8 345.52-14.6Q345.52-17.15 345.22-18.9 344.92-20.65 344.25-21.73 343.57-22.8 342.47-23.28 341.37-23.75 339.72-23.75L339.72-23.75Q338.12-23.75 336.97-22.85 335.82-21.95 334.97-20.35L334.97-20.35Q334.52-19.45 334.19-18.03 333.87-16.6 333.87-15.05L333.87-15.05ZM373.77-27L373.77-27Q376.77-27 379.44-25.98 382.12-24.95 384.14-23.15 386.17-21.35 387.34-18.88 388.52-16.4 388.52-13.45L388.52-13.45Q388.52-10.4 387.34-7.85 386.17-5.3 384.14-3.45 382.12-1.6 379.44-0.55 376.77 0.5 373.77 0.5L373.77 0.5Q370.82 0.5 368.17-0.53 365.52-1.55 363.52-3.4 361.52-5.25 360.37-7.83 359.22-10.4 359.22-13.45L359.22-13.45Q359.22-16.4 360.37-18.9 361.52-21.4 363.52-23.2 365.52-25 368.17-26 370.82-27 373.77-27ZM373.77-24.1L373.77-24.1Q372.27-24.1 371.02-23.33 369.77-22.55 368.89-21.15 368.02-19.75 367.54-17.78 367.07-15.8 367.07-13.4L367.07-13.4Q367.07-10.9 367.54-8.9 368.02-6.9 368.89-5.5 369.77-4.1 370.99-3.33 372.22-2.55 373.77-2.55L373.77-2.55Q375.32-2.55 376.59-3.33 377.87-4.1 378.77-5.53 379.67-6.95 380.17-8.95 380.67-10.95 380.67-13.4L380.67-13.4Q380.67-15.8 380.17-17.75 379.67-19.7 378.77-21.13 377.87-22.55 376.59-23.33 375.32-24.1 373.77-24.1ZM402.06 0.5L394.17-20.05Q393.62-21.5 393.12-22.38 392.62-23.25 392.09-23.73 391.56-24.2 390.94-24.35 390.31-24.5 389.47-24.5L389.47-24.5 389.47-26.5 404.42-26.5 404.42-24.5Q403.17-24.5 402.44-24.4 401.72-24.3 401.34-24.1 400.97-23.9 400.87-23.58 400.76-23.25 400.76-22.85L400.76-22.85Q400.76-22.2 401.01-21.35 401.26-20.5 401.62-19.65L401.62-19.65 406.37-6.55 406.56-6.55 411.92-19.6Q412.26-20.45 412.47-21.13 412.67-21.8 412.67-22.35L412.67-22.35Q412.67-23.45 411.92-23.95 411.17-24.45 409.26-24.5L409.26-24.5 409.26-26.5 420.31-26.5 420.31-24.5Q418.97-24.5 417.99-23.8 417.01-23.1 415.97-20.7L415.97-20.7 406.62 0.5 402.06 0.5ZM424.81-1.75L423.71 0 422.16 0 422.16-9.1 424.26-9.1Q425.11-5.5 426.71-3.85 428.31-2.2 430.86-2.2L430.86-2.2Q432.71-2.2 433.74-2.98 434.76-3.75 434.76-5.1L434.76-5.1Q434.76-6.5 433.51-7.83 432.26-9.15 429.46-10.65L429.46-10.65Q425.66-12.7 424.01-14.73 422.36-16.75 422.36-19.3L422.36-19.3Q422.36-20.95 422.99-22.38 423.61-23.8 424.69-24.85 425.76-25.9 427.26-26.48 428.76-27.05 430.51-27.05L430.51-27.05Q432.06-27.05 433.59-26.6 435.11-26.15 436.26-25.35L436.26-25.35 437.16-26.55 438.46-26.55 438.46-19 436.51-19Q435.36-21.85 434.14-23.1 432.91-24.35 431.16-24.35L431.16-24.35Q429.76-24.35 428.94-23.6 428.11-22.85 428.11-21.6L428.11-21.6Q428.11-20.2 429.34-18.95 430.56-17.7 433.41-16.2L433.41-16.2Q435.41-15.1 436.86-14.05 438.31-13 439.21-11.93 440.11-10.85 440.54-9.68 440.96-8.5 440.96-7.15L440.96-7.15Q440.96-5.4 440.31-4 439.66-2.6 438.46-1.6 437.26-0.6 435.59-0.05 433.91 0.5 431.86 0.5L431.86 0.5Q429.71 0.5 427.86-0.08 426.01-0.65 424.81-1.75L424.81-1.75ZM460.66 0L460.66-2Q462.26-2 462.91-2.13 463.56-2.25 463.56-2.65L463.56-2.65Q463.56-2.95 462.88-4.13 462.21-5.3 461.16-6.85L461.16-6.85 457.36-12.55 454.86-10.15 454.86-8.2Q454.86-6.25 455.01-5.05 455.16-3.85 455.53-3.18 455.91-2.5 456.58-2.25 457.26-2 458.31-2L458.31-2 458.31 0 443.56 0 443.56-2Q444.96-2.05 445.81-2.3 446.66-2.55 447.16-3.18 447.66-3.8 447.83-4.93 448.01-6.05 448.01-7.85L448.01-7.85 448.01-29.05Q448.01-32.1 447.91-33.85 447.81-35.6 447.38-36.48 446.96-37.35 446.08-37.55 445.21-37.75 443.71-37.75L443.71-37.75 443.71-39.6 454.86-41.5 454.86-13.7 459.66-18.25Q462.26-20.7 463.36-21.93 464.46-23.15 464.46-23.7L464.46-23.7Q464.46-24.15 463.53-24.33 462.61-24.5 460.11-24.5L460.11-24.5 460.11-26.5 473.76-26.5 473.76-24.5Q471.86-24.5 470.41-23.85 468.96-23.2 467.26-21.6L467.26-21.6 462.41-17.05 471.06-4.8Q472.21-3.2 473.31-2.6 474.41-2 476.21-2L476.21-2 476.21 0 460.66 0ZM488.81-27L488.81-8.2Q488.81-6.2 488.96-5 489.11-3.8 489.56-3.15 490.01-2.5 490.86-2.27 491.71-2.05 493.16-2L493.16-2 493.16 0 477.41 0 477.41-2Q478.81-2.05 479.68-2.33 480.56-2.6 481.03-3.23 481.51-3.85 481.68-4.98 481.86-6.1 481.86-7.85L481.86-7.85 481.86-14Q481.86-16.9 481.76-18.78 481.66-20.65 481.51-21.35L481.51-21.35Q481.26-22.6 480.38-23 479.51-23.4 477.21-23.4L477.21-23.4 477.21-25.1 488.81-27ZM481.46-37.6L481.46-37.6Q481.46-39.25 482.58-40.38 483.71-41.5 485.31-41.5L485.31-41.5Q486.96-41.5 488.08-40.38 489.21-39.25 489.21-37.6L489.21-37.6Q489.21-36 488.08-34.88 486.96-33.75 485.31-33.75L485.31-33.75Q483.71-33.75 482.58-34.88 481.46-36 481.46-37.6Z" opacity="1" transform="matrix(1,0,0,1,0,0)" fill="#010c80" class="undefined-text-0" data-fill-palette-color="primary" id="text-0"></path></svg></g></svg></g></svg></g></svg></g></svg></g></svg></g></svg></g></svg></g></svg><rect width="395.52" height="247.2" fill="none" stroke="none" visibility="hidden"></rect></g></svg></g></svg>